{"title":"Hammerhead.1968-Dvdrip.Xvid","uid":11330758,"size":1572918593,"categoryP":"video","categoryS":"movies","magnet":"?xt=urn:btih:0b9264fd6b005cd53d1d7e3fb2e8199e905b9902&amp;dn=Hammerhead.1968-Dvdrip.Xvid&amp;tr=udp%3A%2F%2Ftracker.openbittorrent.com%3A80&amp;tr=udp%3A%2F%2Fopen.demonii.com%3A1337&amp;tr=udp%3A%2F%2Ftracker.coppersurfer.tk%3A6969&amp;tr=udp%3A%2F%2Fexodus.desync.com%3A6969","seeders":0,"leechers":1,"uploader":"TvTeam","files":3,"time":1414675685,"description":" &lt;a href=&quot;http://www.torrenting.com&quot; rel=&quot;nofollow&quot; target=&quot;_NEW&quot;&gt;http://www.torrenting.com&lt;/a&gt;\n\nSign up is OPEN - for time being. Come and have fun.\n\n\n------------------------------------------------------------------------Hammerhead 1968 Dvdrip Xvid\n\nDrama | Thriller  -  April 1968 (UK) &lt;a href=&quot;\nhttp://www.imdb.com/title/tt0063041/&quot; rel=&quot;nofollow&quot; target=&quot;_NEW&quot;&gt;\nhttp://www.imdb.com/title/tt0063041/&lt;/a&gt;\nRatings: 5.3/10 from 103 users  \n\nAn American agent has tracked down the stronghold of an evil criminal \nmastermind, determined to take over the world.\n\nDirector: David Miller\nWriters: William Bast (screenplay), Herbert Baker (screenplay), \nStars: Vince Edwards, Judy Geeson, Peter Vaughan \n\nVideo: 704x384 Xvid\nAudio: English AC3 2.0\nSubs: none\n\nFormat                                   : AVI\nFormat/Info                              : Audio Video Interleave\nFile size                                : 1.46 GiB\nDuration                                 : 1h 39mn\nOverall bit rate                         : 2 116 Kbps\n\nVideo\nID                                       : 0\nFormat                                   : MPEG-4 Visual\nFormat profile                           : Simple@L3\nFormat settings, BVOP                    : No\nFormat settings, QPel                    : No\nFormat settings, GMC                     : No warppoints\nFormat settings, Matrix                  : Default (H.263)\nCodec ID                                 : XVID\nCodec ID/Hint                            : XviD\nDuration                                 : 1h 39mn\nSource duration                          : 1h 39mn\nBit rate                                 : 1 881 Kbps\nWidth                                    : 704 pixels\nHeight                                   : 384 pixels\nDisplay aspect ratio                     : 1.85:1\nFrame rate                               : 23.976 fps\nColor space                              : YUV\nChroma subsampling                       : 4:2:0\nBit depth                                : 8 bits\nScan type                                : Progressive\nCompression mode                         : Lossy\nBits/(Pixel*Frame)                       : 0.290\nStream size                              : 1.30 GiB (89%)\nWriting library                          : XviD 1.1.2 (UTC 2006-11-01)\n\nAudio\nID                                       : 1\nFormat                                   : AC-3\nFormat/Info                              : Audio Coding 3\nMode extension                           : CM (complete main)\nFormat settings, Endianness              : Big\nCodec ID                                 : 2000\nDuration                                 : 1h 39mn\nBit rate mode                            : Constant\nBit rate                                 : 224 Kbps\nChannel(s)                               : 2 channels\nChannel positions                        : Front: L R\nSampling rate                            : 48.0 KHz\nBit depth                                : 16 bits\nCompression mode                         : Lossy\nStream size                              : 159 MiB (11%)\nAlignment                                : Aligned on interleaves\nInterleave, duration                     : 32 ms (0.77 video frame)","torrent":{"xt":"urn:btih:0b9264fd6b005cd53d1d7e3fb2e8199e905b9902","amp;dn":"Hammerhead.1968-Dvdrip.Xvid","amp;tr":["udp%3A%2F%2Ftracker.openbittorrent.com%3A80","udp%3A%2F%2Fopen.demonii.com%3A1337","udp%3A%2F%2Ftracker.coppersurfer.tk%3A6969","udp%3A%2F%2Fexodus.desync.com%3A6969"],"infoHash":"0b9264fd6b005cd53d1d7e3fb2e8199e905b9902","infoHashBuffer":{"type":"Buffer","data":[11,146,100,253,107,0,92,213,61,29,126,63,178,232,25,158,144,91,153,2]},"announce":[],"urlList":[]}}